<?xml version="1.0" encoding="UTF-8"?>
<svg id="Layer_1" xmlns="http://www.w3.org/2000/svg" version="1.1" viewBox="0 0 81.8 103">
  <!-- Generator: Adobe Illustrator 30.2.1, SVG Export Plug-In . SVG Version: 2.1.1 Build 1)  -->
  <defs>
    <style>
      .st0 {
        fill: #dad9d9;
      }
    </style>
  </defs>
  <path class="st0" d="M54.3,32.5c.3.5-.2.9.5,1.1-.4.9,0,2.1-.3,3h.3c-.3.5,0,.8,0,.9,0,.4,0,.8,0,1.2-3.3-1-8.2.3-11.6.8-2,.4-4.8,0-6.5,1.1.2.8,0,1.6,0,2.4s0,.5-.2.7c0,.4,0,.8.2,1.1,0,.8.3,2.2-.3,2.7,0,.8.3,1.7.8,2.4,4.4-.8,9.3,0,13.7-1.8l.8,1c-1,1.1,0,2.9-.2,4s-.5.9-.4,1.5c-2.5-.9-5.5,0-8,.7-1,.2-5,.3-5.4,1.1,0,2.6.6,5.3.6,8-.3,3.3-.2,6.8.5,10.2h-.2c.2,1.2.3,2.3.6,3.3l-.8,1.3c-1,.2-1.9,0-2.9,0-1.4,0-2.4.7-3.2-.8s.3-.8.3-1.4-.4-1.2-.4-1.4.2-.4.2-.8-.3-.5-.3-.7.3-.3.3-.6c0-2.1-.3-4.4-.4-6.5-.3-1.6-.5-3.5,0-5.1-.7-2.9-.3-6.7-.3-9.6.5-.8,0-1.8,0-2.9.3-5.1-.5-10.6-1.1-15.6.6-.7,1-.7,1.8-.5,0,0,0-.2.2-.3,5.5.8,11.1-.6,16.6-.9,1.8,0,3.3.3,4.9.2h.1Z"/>
</svg>